<svg xmlns="http://www.w3.org/2000/svg" xmlns:xlink="http://www.w3.org/1999/xlink" width="1080" zoomAndPan="magnify" viewBox="0 0 810 809.999993" height="1080" preserveAspectRatio="xMidYMid meet" version="1.0"><defs><clipPath id="79b99e5439"><path d="M 56 320 L 776.078125 320 L 776.078125 810 L 56 810 Z M 56 320 " clip-rule="nonzero"/></clipPath></defs><g clip-path="url(#79b99e5439)"><path fill="#ff914d" d="M 72.199219 320.820312 C 171.070312 326.164062 242.832031 364.777344 322.128906 414.644531 C 325.28125 416.625 329.363281 415.984375 331.773438 413.296875 L 392.96875 451.964844 C 386.402344 472.367188 394.148438 495.546875 413.0625 507.496094 L 517.851562 573.714844 C 521.746094 576.167969 526.945312 575 529.402344 571.105469 C 531.871094 567.210938 530.695312 562.011719 526.800781 559.550781 C 498.523438 541.691406 470.25 523.816406 441.976562 505.949219 C 439.414062 504.328125 438.644531 500.914062 440.265625 498.355469 C 441.878906 495.789062 445.300781 495.019531 447.863281 496.636719 L 532.6875 550.242188 C 536.582031 552.699219 541.78125 551.53125 544.238281 547.632812 C 546.703125 543.738281 545.53125 538.535156 541.632812 536.082031 L 456.808594 482.476562 C 454.242188 480.855469 453.480469 477.441406 455.09375 474.882812 C 456.71875 472.320312 460.125 471.550781 462.695312 473.171875 L 547.519531 526.773438 C 551.410156 529.230469 556.613281 528.058594 559.070312 524.164062 C 561.53125 520.269531 560.359375 515.070312 556.46875 512.601562 L 471.640625 459.003906 C 469.078125 457.382812 468.3125 453.96875 469.929688 451.40625 C 471.550781 448.84375 474.960938 448.074219 477.523438 449.695312 L 562.355469 503.296875 C 566.246094 505.757812 571.445312 504.578125 573.910156 500.683594 C 576.363281 496.792969 575.1875 491.589844 571.304688 489.136719 L 466.503906 422.917969 C 447.601562 410.96875 423.339844 413.910156 407.730469 428.605469 L 346.539062 389.933594 C 347.925781 386.601562 346.800781 382.574219 343.609375 380.644531 C 253.996094 326.441406 409.804688 328.554688 776.417969 516.4375 C 720.335938 688.519531 583.113281 842.460938 452.714844 685.851562 C 450.335938 682.988281 445.863281 683.164062 442.992188 685.347656 L 390.1875 635.730469 C 400.761719 616.972656 397.835938 593.230469 367.828125 565.027344 C 331.527344 530.914062 269.324219 503.203125 250.410156 523.335938 C 231.488281 543.46875 263.007812 603.824219 299.3125 637.941406 C 329.320312 666.136719 353.199219 667.582031 371.269531 655.867188 L 424.070312 705.480469 C 422.070312 708.488281 422.597656 712.484375 425.179688 715.160156 C 466.589844 758.128906 507.171875 799.226562 476.449219 809.496094 C 465.605469 813.117188 453.425781 795.542969 327.941406 755.945312 C 245.054688 733.992188 195.191406 723.972656 186.367188 717.296875 C 177.542969 710.617188 183.027344 690.578125 193.519531 686.519531 C 199.605469 684.171875 212.902344 682.296875 223.011719 681.140625 C 33.578125 609.574219 42.964844 445.296875 72.199219 320.820312 Z M 72.199219 320.820312 " fill-opacity="1" fill-rule="evenodd"/></g><path fill="#a6a6a6" d="M 437.128906 339.46875 C 434.003906 335.554688 428.117188 326.308594 423.875 312.371094 C 419.628906 298.433594 417.019531 279.804688 420.605469 263.257812 C 424.191406 246.71875 433.96875 232.261719 448.316406 216.335938 C 462.660156 200.414062 481.566406 183.035156 494.417969 169.152344 C 507.261719 155.269531 514.042969 144.886719 515.929688 136.839844 C 517.8125 128.800781 514.800781 123.089844 507.425781 121.9375 C 500.050781 120.789062 488.308594 124.1875 468.886719 130.109375 C 449.46875 136.03125 422.363281 144.476562 402.117188 144.78125 C 381.863281 145.085938 368.460938 137.257812 361.355469 124.671875 C 354.246094 112.085938 353.429688 94.746094 356.203125 78.875 C 358.976562 63.007812 365.347656 48.609375 376.117188 35.09375 C 386.890625 21.582031 402.070312 8.941406 409.160156 4.519531 C 416.25 0.0976562 415.253906 3.894531 413.410156 13.796875 C 411.570312 23.703125 408.882812 39.722656 409.765625 52.089844 C 410.644531 64.460938 415.089844 73.179688 423.734375 77.046875 C 432.371094 80.910156 445.203125 79.925781 464.421875 73.238281 C 483.632812 66.554688 509.238281 54.175781 531.742188 45.488281 C 554.242188 36.804688 573.648438 31.8125 588.964844 33.222656 C 604.277344 34.636719 615.5 42.457031 622.589844 55.898438 C 629.675781 69.339844 632.628906 88.40625 631.136719 108.464844 C 629.640625 128.523438 623.703125 149.570312 613.132812 166.175781 C 602.5625 182.785156 587.351562 194.960938 566.242188 207.125 C 545.128906 219.292969 518.113281 231.457031 499.917969 243.046875 C 481.714844 254.636719 472.339844 265.65625 463.988281 281.808594 C 455.640625 297.960938 448.328125 319.25 444.480469 330.605469 C 440.636719 341.964844 440.261719 343.386719 437.136719 339.472656 Z M 437.128906 339.46875 " fill-opacity="1" fill-rule="evenodd"/><path fill="#a6a6a6" d="M 472.757812 354.707031 C 473.445312 352.101562 477.332031 347.34375 486.050781 341.652344 C 494.765625 335.957031 508.316406 329.335938 519.726562 320.824219 C 531.128906 312.316406 540.394531 301.925781 549.828125 294.089844 C 559.257812 286.257812 568.859375 280.96875 576.914062 281.765625 C 584.960938 282.566406 591.46875 289.449219 593.105469 297.960938 C 594.746094 306.476562 591.523438 316.625 583.25 325.472656 C 574.96875 334.320312 561.632812 341.871094 546.824219 347.023438 C 532.015625 352.179688 515.726562 354.945312 503.863281 356.414062 C 491.996094 357.886719 484.550781 358.058594 479.570312 357.917969 C 474.589844 357.773438 472.074219 357.316406 472.757812 354.707031 Z M 472.757812 354.707031 " fill-opacity="1" fill-rule="evenodd"/><path fill="#a6a6a6" d="M 386.914062 328.195312 C 387.816406 325.238281 386.875 318.253906 381.78125 307.445312 C 376.691406 296.636719 367.433594 282.011719 361.402344 266.828125 C 355.375 251.652344 352.578125 235.925781 348.074219 222.59375 C 343.570312 209.265625 337.367188 198.324219 329.019531 194.257812 C 320.671875 190.195312 310.175781 193.007812 303.453125 200.339844 C 296.726562 207.675781 293.769531 219.527344 296.535156 233.15625 C 299.300781 246.785156 307.792969 262.183594 319.160156 276.128906 C 330.527344 290.078125 344.785156 302.582031 355.488281 311.152344 C 366.199219 319.734375 373.375 324.378906 378.324219 327.238281 C 383.277344 330.09375 386.011719 331.160156 386.910156 328.195312 Z M 386.914062 328.195312 " fill-opacity="1" fill-rule="evenodd"/></svg>