<svg xmlns="http://www.w3.org/2000/svg" xmlns:xlink="http://www.w3.org/1999/xlink" width="1200" zoomAndPan="magnify" viewBox="0 0 900 374.999991" height="500" preserveAspectRatio="xMidYMid meet" version="1.0"><defs><g/><clipPath id="888da223d3"><path d="M 283 64 L 427.378906 64 L 427.378906 163 L 283 163 Z M 283 64 " clip-rule="nonzero"/></clipPath></defs><g fill="#bf2a2e" fill-opacity="1"><g transform="translate(137.570365, 301.70928)"><g><path d="M 42.46875 0 L 5.140625 0 C 6.273438 -1.03125 7.15625 -3 7.78125 -5.90625 C 8.414062 -8.820312 8.847656 -12.191406 9.078125 -16.015625 C 9.304688 -19.835938 9.476562 -23.742188 9.59375 -27.734375 C 9.707031 -31.734375 9.734375 -35.390625 9.671875 -38.703125 C 9.617188 -42.015625 9.59375 -44.582031 9.59375 -46.40625 L 9.59375 -132.015625 C 9.59375 -133.847656 9.617188 -136.414062 9.671875 -139.71875 C 9.734375 -143.03125 9.707031 -146.679688 9.59375 -150.671875 C 9.476562 -154.671875 9.304688 -158.582031 9.078125 -162.40625 C 8.847656 -166.238281 8.414062 -169.609375 7.78125 -172.515625 C 7.15625 -175.429688 6.273438 -177.398438 5.140625 -178.421875 L 35.453125 -178.421875 C 45.378906 -178.421875 54.304688 -176.9375 62.234375 -173.96875 C 70.171875 -171 76.453125 -166.175781 81.078125 -159.5 C 85.703125 -152.820312 88.015625 -143.890625 88.015625 -132.703125 C 88.015625 -127.109375 87.15625 -121.742188 85.4375 -116.609375 C 83.726562 -111.472656 81.390625 -106.960938 78.421875 -103.078125 C 75.453125 -99.203125 72.03125 -96.289062 68.15625 -94.34375 C 73.40625 -92.632812 77.367188 -90.207031 80.046875 -87.0625 C 82.734375 -83.925781 84.5625 -80.273438 85.53125 -76.109375 C 86.5 -71.941406 86.984375 -67.519531 86.984375 -62.84375 C 86.984375 -59.300781 86.953125 -56.390625 86.890625 -54.109375 C 86.835938 -51.828125 86.8125 -49.257812 86.8125 -46.40625 C 86.8125 -44.582031 86.8125 -42.015625 86.8125 -38.703125 C 86.8125 -35.390625 86.835938 -31.734375 86.890625 -27.734375 C 86.953125 -23.742188 87.125 -19.835938 87.40625 -16.015625 C 87.695312 -12.191406 88.15625 -8.820312 88.78125 -5.90625 C 89.414062 -3 90.242188 -1.03125 91.265625 0 L 69 -0.171875 L 53.9375 0 C 55.082031 -1.03125 55.96875 -3 56.59375 -5.90625 C 57.21875 -8.820312 57.644531 -12.191406 57.875 -16.015625 C 58.101562 -19.835938 58.273438 -23.742188 58.390625 -27.734375 C 58.503906 -31.734375 58.53125 -35.390625 58.46875 -38.703125 C 58.414062 -42.015625 58.390625 -44.582031 58.390625 -46.40625 C 58.390625 -50.625 58.332031 -54.675781 58.21875 -58.5625 C 58.101562 -62.445312 57.617188 -65.957031 56.765625 -69.09375 C 55.910156 -72.226562 54.394531 -74.707031 52.21875 -76.53125 C 50.050781 -78.363281 46.859375 -79.28125 42.640625 -79.28125 L 38.1875 -79.28125 C 38.1875 -79.28125 38.1875 -78.023438 38.1875 -75.515625 C 38.1875 -73.003906 38.15625 -69.890625 38.09375 -66.171875 C 38.039062 -62.460938 38.015625 -58.8125 38.015625 -55.21875 C 38.015625 -51.625 38.015625 -48.6875 38.015625 -46.40625 C 38.015625 -44.582031 38.015625 -42.015625 38.015625 -38.703125 C 38.015625 -35.390625 38.039062 -31.734375 38.09375 -27.734375 C 38.15625 -23.742188 38.328125 -19.835938 38.609375 -16.015625 C 38.898438 -12.191406 39.359375 -8.820312 39.984375 -5.90625 C 40.609375 -3 41.4375 -1.03125 42.46875 0 Z M 44.171875 -152.234375 L 38.1875 -152.234375 L 38.1875 -102.5625 C 41.957031 -102.5625 45.46875 -103.703125 48.71875 -105.984375 C 51.96875 -108.273438 54.5625 -111.5625 56.5 -115.84375 C 58.445312 -120.125 59.421875 -125.175781 59.421875 -131 C 59.421875 -136.9375 58.164062 -141.957031 55.65625 -146.0625 C 53.144531 -150.175781 49.316406 -152.234375 44.171875 -152.234375 Z M 44.171875 -152.234375 "/></g></g></g><g fill="#bf2a2e" fill-opacity="1"><g transform="translate(232.081282, 301.70928)"><g><path d="M 6 -93.15625 C 6 -106.050781 9.363281 -115.4375 16.09375 -121.3125 C 22.832031 -127.195312 31.738281 -130.140625 42.8125 -130.140625 C 54 -130.140625 62.988281 -127.195312 69.78125 -121.3125 C 76.570312 -115.4375 79.96875 -106.050781 79.96875 -93.15625 L 79.96875 -80.140625 C 79.96875 -75.234375 79.96875 -70.609375 79.96875 -66.265625 C 79.96875 -61.929688 79.9375 -58.421875 79.875 -55.734375 C 79.820312 -53.054688 79.796875 -51.71875 79.796875 -51.71875 L 34.25 -51.71875 C 34.25 -50.226562 34.273438 -48.34375 34.328125 -46.0625 C 34.390625 -43.78125 34.421875 -41.523438 34.421875 -39.296875 C 34.421875 -37.066406 34.421875 -35.382812 34.421875 -34.25 C 34.535156 -30.25 35.789062 -27.335938 38.1875 -25.515625 C 40.582031 -23.691406 43.609375 -22.78125 47.265625 -22.78125 C 50.234375 -22.78125 52.457031 -23.460938 53.9375 -24.828125 C 55.425781 -26.203125 56.28125 -27.742188 56.5 -29.453125 C 56.726562 -31.160156 56.472656 -32.695312 55.734375 -34.0625 C 54.992188 -35.4375 53.820312 -36.125 52.21875 -36.125 C 52.21875 -38.519531 53.53125 -40.570312 56.15625 -42.28125 C 58.789062 -44 61.703125 -44.859375 64.890625 -44.859375 C 67.628906 -44.859375 70.3125 -44.257812 72.9375 -43.0625 C 75.570312 -41.863281 77.769531 -39.863281 79.53125 -37.0625 C 81.300781 -34.269531 82.1875 -30.363281 82.1875 -25.34375 C 82.1875 -17.695312 79.132812 -11.273438 73.03125 -6.078125 C 66.925781 -0.878906 57.9375 1.71875 46.0625 1.71875 C 38.644531 1.71875 31.910156 0.429688 25.859375 -2.140625 C 19.804688 -4.710938 14.984375 -8.738281 11.390625 -14.21875 C 7.796875 -19.695312 6 -26.71875 6 -35.28125 Z M 34.59375 -94.171875 L 34.59375 -76.03125 L 51.71875 -76.03125 L 51.71875 -94.171875 C 51.71875 -98.171875 50.832031 -101.054688 49.0625 -102.828125 C 47.289062 -104.597656 45.320312 -105.484375 43.15625 -105.484375 C 40.976562 -105.484375 39.003906 -104.597656 37.234375 -102.828125 C 35.472656 -101.054688 34.59375 -98.171875 34.59375 -94.171875 Z M 34.59375 -94.171875 "/></g></g></g><g fill="#bf2a2e" fill-opacity="1"><g transform="translate(319.401167, 301.70928)"><g><path d="M 39.71875 1.71875 C 31.613281 1.71875 24.847656 0.289062 19.421875 -2.5625 C 14.003906 -5.414062 9.984375 -9.125 7.359375 -13.6875 C 4.734375 -18.257812 3.421875 -23.171875 3.421875 -28.421875 C 3.421875 -34.816406 5.132812 -40.179688 8.5625 -44.515625 C 11.988281 -48.859375 17.179688 -51.03125 24.140625 -51.03125 C 27.910156 -51.03125 30.765625 -50.316406 32.703125 -48.890625 C 34.640625 -47.460938 35.953125 -45.921875 36.640625 -44.265625 C 37.328125 -42.609375 37.671875 -41.320312 37.671875 -40.40625 C 35.503906 -40.40625 33.648438 -39.632812 32.109375 -38.09375 C 30.566406 -36.550781 29.796875 -34.46875 29.796875 -31.84375 C 29.796875 -29.21875 30.738281 -27.050781 32.625 -25.34375 C 34.507812 -23.632812 36.765625 -22.78125 39.390625 -22.78125 C 42.460938 -22.78125 44.941406 -23.945312 46.828125 -26.28125 C 48.710938 -28.625 49.65625 -32.019531 49.65625 -36.46875 C 49.65625 -40.46875 48.570312 -44.066406 46.40625 -47.265625 C 44.238281 -50.460938 41.46875 -53.429688 38.09375 -56.171875 C 34.726562 -58.910156 31.132812 -61.675781 27.3125 -64.46875 C 23.488281 -67.269531 19.890625 -70.265625 16.515625 -73.453125 C 13.148438 -76.648438 10.382812 -80.273438 8.21875 -84.328125 C 6.050781 -88.378906 4.96875 -93.085938 4.96875 -98.453125 C 4.96875 -104.046875 6.28125 -109.238281 8.90625 -114.03125 C 11.53125 -118.832031 15.265625 -122.71875 20.109375 -125.6875 C 24.960938 -128.65625 30.757812 -130.140625 37.5 -130.140625 C 41.613281 -130.140625 45.066406 -130.023438 47.859375 -129.796875 C 50.660156 -129.566406 53.597656 -129.421875 56.671875 -129.359375 C 59.753906 -129.304688 63.640625 -129.507812 68.328125 -129.96875 L 68.328125 -100.34375 C 64.441406 -102.625 60.5 -104.304688 56.5 -105.390625 C 52.507812 -106.472656 48.457031 -107.015625 44.34375 -107.015625 C 41.71875 -107.015625 39.234375 -106.414062 36.890625 -105.21875 C 34.554688 -104.019531 33.332031 -101.820312 33.21875 -98.625 C 33.101562 -95.769531 34.070312 -93.054688 36.125 -90.484375 C 38.1875 -87.921875 40.84375 -85.328125 44.09375 -82.703125 C 47.34375 -80.078125 50.820312 -77.25 54.53125 -74.21875 C 58.25 -71.195312 61.734375 -67.773438 64.984375 -63.953125 C 68.234375 -60.128906 70.914062 -55.734375 73.03125 -50.765625 C 75.144531 -45.804688 76.203125 -40.070312 76.203125 -33.5625 C 76.203125 -26.03125 74.515625 -19.632812 71.140625 -14.375 C 67.773438 -9.125 63.320312 -5.128906 57.78125 -2.390625 C 52.25 0.347656 46.226562 1.71875 39.71875 1.71875 Z M 39.71875 1.71875 "/></g></g></g><g fill="#bf2a2e" fill-opacity="1"><g transform="translate(395.592041, 301.70928)"><g><path d="M 11.296875 -101.203125 L 3.421875 -101.203125 L 3.421875 -128.421875 C 3.535156 -128.421875 4.445312 -128.734375 6.15625 -129.359375 C 7.875 -129.992188 10.101562 -131.140625 12.84375 -132.796875 C 15.582031 -134.453125 18.4375 -136.765625 21.40625 -139.734375 C 24.144531 -142.472656 26.457031 -145.238281 28.34375 -148.03125 C 30.226562 -150.832031 31.65625 -153.171875 32.625 -155.046875 C 33.59375 -156.929688 34.078125 -157.875 34.078125 -157.875 L 39.390625 -157.875 L 39.390625 -128.421875 L 46.921875 -128.421875 L 46.921875 -101.203125 L 39.390625 -101.203125 L 39.390625 -42.8125 C 39.390625 -38.695312 39.757812 -35.640625 40.5 -33.640625 C 41.238281 -31.648438 42.207031 -30.394531 43.40625 -29.875 C 44.601562 -29.363281 45.882812 -29.222656 47.25 -29.453125 C 48.625 -29.679688 49.882812 -29.851562 51.03125 -29.96875 L 51.03125 0 C 46.34375 0 41.660156 -0.195312 36.984375 -0.59375 C 32.304688 -1 28.023438 -2.226562 24.140625 -4.28125 C 20.265625 -6.332031 17.15625 -9.726562 14.8125 -14.46875 C 12.46875 -19.207031 11.296875 -25.914062 11.296875 -34.59375 Z M 11.296875 -101.203125 "/></g></g></g><g fill="#bf2a2e" fill-opacity="1"><g transform="translate(448.326393, 301.70928)"><g><path d="M 40.578125 0 L 3.421875 0 C 4.566406 -1.03125 5.453125 -3 6.078125 -5.90625 C 6.703125 -8.820312 7.128906 -12.191406 7.359375 -16.015625 C 7.585938 -19.835938 7.757812 -23.742188 7.875 -27.734375 C 7.988281 -31.734375 8.015625 -35.390625 7.953125 -38.703125 C 7.898438 -42.015625 7.875 -44.582031 7.875 -46.40625 L 7.875 -82.015625 C 7.875 -83.847656 7.898438 -86.414062 7.953125 -89.71875 C 8.015625 -93.03125 7.988281 -96.679688 7.875 -100.671875 C 7.757812 -104.671875 7.585938 -108.582031 7.359375 -112.40625 C 7.128906 -116.238281 6.703125 -119.609375 6.078125 -122.515625 C 5.453125 -125.429688 4.566406 -127.398438 3.421875 -128.421875 L 36.296875 -128.421875 L 36.46875 -119.859375 C 37.726562 -121.921875 40.125 -124.148438 43.65625 -126.546875 C 47.195312 -128.941406 51.992188 -130.140625 58.046875 -130.140625 C 63.753906 -130.140625 68.234375 -128.941406 71.484375 -126.546875 C 74.742188 -124.148438 77.113281 -121.066406 78.59375 -117.296875 C 80.53125 -120.722656 83.554688 -123.71875 87.671875 -126.28125 C 91.785156 -128.851562 97.09375 -130.140625 103.59375 -130.140625 C 108.957031 -130.140625 113.238281 -129.050781 116.4375 -126.875 C 119.632812 -124.707031 122.03125 -121.851562 123.625 -118.3125 C 125.226562 -114.78125 126.285156 -110.898438 126.796875 -106.671875 C 127.304688 -102.453125 127.5625 -98.285156 127.5625 -94.171875 C 127.5625 -86.179688 127.53125 -78.21875 127.46875 -70.28125 C 127.414062 -62.351562 127.390625 -54.394531 127.390625 -46.40625 C 127.390625 -44.582031 127.363281 -42.015625 127.3125 -38.703125 C 127.257812 -35.390625 127.285156 -31.734375 127.390625 -27.734375 C 127.503906 -23.742188 127.675781 -19.835938 127.90625 -16.015625 C 128.132812 -12.191406 128.5625 -8.820312 129.1875 -5.90625 C 129.820312 -3 130.707031 -1.03125 131.84375 0 L 94.6875 0 C 95.71875 -1.03125 96.546875 -3 97.171875 -5.90625 C 97.804688 -8.820312 98.265625 -12.191406 98.546875 -16.015625 C 98.828125 -19.835938 98.992188 -23.742188 99.046875 -27.734375 C 99.109375 -31.734375 99.140625 -35.390625 99.140625 -38.703125 C 99.140625 -42.015625 99.140625 -44.582031 99.140625 -46.40625 C 99.140625 -54.394531 99.140625 -62.328125 99.140625 -70.203125 C 99.140625 -78.078125 99.082031 -85.898438 98.96875 -93.671875 C 98.851562 -97.660156 98.023438 -100.625 96.484375 -102.5625 C 94.941406 -104.507812 93.085938 -105.484375 90.921875 -105.484375 C 88.753906 -105.484375 86.753906 -104.597656 84.921875 -102.828125 C 83.097656 -101.054688 82.070312 -98.171875 81.84375 -94.171875 C 81.84375 -86.179688 81.8125 -78.21875 81.75 -70.28125 C 81.695312 -62.351562 81.671875 -54.394531 81.671875 -46.40625 C 81.671875 -44.582031 81.671875 -42.015625 81.671875 -38.703125 C 81.671875 -35.390625 81.695312 -31.734375 81.75 -27.734375 C 81.8125 -23.742188 81.984375 -19.835938 82.265625 -16.015625 C 82.554688 -12.191406 83.015625 -8.820312 83.640625 -5.90625 C 84.273438 -3 85.101562 -1.03125 86.125 0 L 48.96875 0 C 50.113281 -1.03125 51 -3 51.625 -5.90625 C 52.25 -8.820312 52.675781 -12.191406 52.90625 -16.015625 C 53.132812 -19.835938 53.304688 -23.742188 53.421875 -27.734375 C 53.535156 -31.734375 53.5625 -35.390625 53.5 -38.703125 C 53.445312 -42.015625 53.421875 -44.582031 53.421875 -46.40625 C 53.421875 -54.394531 53.445312 -62.328125 53.5 -70.203125 C 53.5625 -78.078125 53.535156 -85.898438 53.421875 -93.671875 C 53.304688 -97.660156 52.445312 -100.625 50.84375 -102.5625 C 49.25 -104.507812 47.425781 -105.484375 45.375 -105.484375 C 43.207031 -105.484375 41.179688 -104.597656 39.296875 -102.828125 C 37.410156 -101.054688 36.410156 -98.171875 36.296875 -94.171875 C 36.296875 -86.179688 36.265625 -78.21875 36.203125 -70.28125 C 36.148438 -62.351562 36.125 -54.394531 36.125 -46.40625 C 36.125 -44.582031 36.09375 -42.015625 36.03125 -38.703125 C 35.976562 -35.390625 36.007812 -31.734375 36.125 -27.734375 C 36.238281 -23.742188 36.410156 -19.835938 36.640625 -16.015625 C 36.867188 -12.191406 37.296875 -8.820312 37.921875 -5.90625 C 38.554688 -3 39.441406 -1.03125 40.578125 0 Z M 40.578125 0 "/></g></g></g><g fill="#bf2a2e" fill-opacity="1"><g transform="translate(583.5866, 301.70928)"><g><path d="M 30.3125 1.71875 C 25.507812 1.71875 21.195312 0.429688 17.375 -2.140625 C 13.550781 -4.710938 10.554688 -8.25 8.390625 -12.75 C 6.222656 -17.257812 5.140625 -22.3125 5.140625 -27.90625 C 5.140625 -35.894531 6.304688 -42.398438 8.640625 -47.421875 C 10.984375 -52.453125 13.976562 -56.535156 17.625 -59.671875 C 21.28125 -62.816406 25.164062 -65.5 29.28125 -67.71875 C 33.394531 -69.945312 37.273438 -72.171875 40.921875 -74.390625 C 44.578125 -76.617188 47.570312 -79.359375 49.90625 -82.609375 C 52.25 -85.867188 53.421875 -90.125 53.421875 -95.375 C 53.421875 -97.65625 52.675781 -99.910156 51.1875 -102.140625 C 49.707031 -104.367188 47.144531 -105.484375 43.5 -105.484375 C 40.875 -105.484375 38.617188 -104.65625 36.734375 -103 C 34.847656 -101.34375 33.90625 -99.203125 33.90625 -96.578125 C 33.90625 -93.835938 34.675781 -91.722656 36.21875 -90.234375 C 37.757812 -88.753906 39.613281 -88.015625 41.78125 -88.015625 C 41.78125 -87.210938 41.4375 -85.953125 40.75 -84.234375 C 40.0625 -82.523438 38.75 -80.957031 36.8125 -79.53125 C 34.875 -78.101562 32.019531 -77.390625 28.25 -77.390625 C 21.289062 -77.390625 16.097656 -79.554688 12.671875 -83.890625 C 9.242188 -88.234375 7.53125 -93.546875 7.53125 -99.828125 C 7.53125 -105.078125 8.84375 -110.015625 11.46875 -114.640625 C 14.09375 -119.265625 18.085938 -123.003906 23.453125 -125.859375 C 28.816406 -128.710938 35.554688 -130.140625 43.671875 -130.140625 C 51.316406 -130.140625 57.59375 -128.828125 62.5 -126.203125 C 67.40625 -123.578125 71.226562 -120.066406 73.96875 -115.671875 C 76.707031 -111.273438 78.617188 -106.363281 79.703125 -100.9375 C 80.796875 -95.519531 81.34375 -90.015625 81.34375 -84.421875 C 81.34375 -84.421875 81.34375 -83.421875 81.34375 -81.421875 C 81.34375 -79.421875 81.367188 -76.820312 81.421875 -73.625 C 81.472656 -70.4375 81.5 -67.097656 81.5 -63.609375 C 81.5 -60.128906 81.5 -56.847656 81.5 -53.765625 C 81.5 -50.679688 81.5 -48.226562 81.5 -46.40625 C 81.5 -44.582031 81.472656 -42.015625 81.421875 -38.703125 C 81.367188 -35.390625 81.367188 -31.734375 81.421875 -27.734375 C 81.472656 -23.742188 81.640625 -19.835938 81.921875 -16.015625 C 82.210938 -12.191406 82.671875 -8.820312 83.296875 -5.90625 C 83.929688 -3 84.757812 -1.03125 85.78125 0 L 53.421875 0 L 53.421875 -15.0625 C 53.421875 -15.0625 52.90625 -14.207031 51.875 -12.5 C 50.851562 -10.789062 49.367188 -8.820312 47.421875 -6.59375 C 45.484375 -4.363281 43.085938 -2.421875 40.234375 -0.765625 C 37.378906 0.890625 34.070312 1.71875 30.3125 1.71875 Z M 53.078125 -55.828125 C 51.023438 -54.335938 48.6875 -52.648438 46.0625 -50.765625 C 43.4375 -48.890625 41.148438 -46.609375 39.203125 -43.921875 C 37.265625 -41.234375 36.296875 -37.835938 36.296875 -33.734375 C 36.296875 -30.765625 37.007812 -28.222656 38.4375 -26.109375 C 39.863281 -24.003906 42.003906 -22.953125 44.859375 -22.953125 C 47.597656 -22.953125 49.648438 -24.175781 51.015625 -26.625 C 52.390625 -29.082031 53.078125 -32.191406 53.078125 -35.953125 Z M 53.078125 -55.828125 "/></g></g></g><g fill="#bf2a2e" fill-opacity="1"><g transform="translate(672.789846, 301.70928)"><g><path d="M 3.421875 0 C 4.566406 -1.03125 5.453125 -3 6.078125 -5.90625 C 6.703125 -8.820312 7.128906 -12.191406 7.359375 -16.015625 C 7.585938 -19.835938 7.757812 -23.742188 7.875 -27.734375 C 7.988281 -31.734375 8.015625 -35.390625 7.953125 -38.703125 C 7.898438 -42.015625 7.875 -44.582031 7.875 -46.40625 C 7.875 -50.394531 7.875 -53.757812 7.875 -56.5 C 7.875 -59.238281 7.875 -61.804688 7.875 -64.203125 C 7.875 -66.609375 7.875 -69.179688 7.875 -71.921875 C 7.875 -74.660156 7.875 -78.023438 7.875 -82.015625 C 7.875 -83.847656 7.898438 -86.414062 7.953125 -89.71875 C 8.015625 -93.03125 7.988281 -96.679688 7.875 -100.671875 C 7.757812 -104.671875 7.585938 -108.582031 7.359375 -112.40625 C 7.128906 -116.238281 6.703125 -119.609375 6.078125 -122.515625 C 5.453125 -125.429688 4.566406 -127.398438 3.421875 -128.421875 L 36.296875 -128.421875 L 36.46875 -119.859375 C 37.726562 -121.921875 40.125 -124.148438 43.65625 -126.546875 C 47.195312 -128.941406 51.992188 -130.140625 58.046875 -130.140625 C 63.410156 -130.140625 67.691406 -129.050781 70.890625 -126.875 C 74.085938 -124.707031 76.457031 -121.851562 78 -118.3125 C 79.539062 -114.78125 80.566406 -110.898438 81.078125 -106.671875 C 81.585938 -102.453125 81.84375 -98.285156 81.84375 -94.171875 C 81.84375 -86.179688 81.8125 -78.21875 81.75 -70.28125 C 81.695312 -62.351562 81.671875 -54.394531 81.671875 -46.40625 C 81.671875 -44.582031 81.671875 -42.015625 81.671875 -38.703125 C 81.671875 -35.390625 81.695312 -31.734375 81.75 -27.734375 C 81.8125 -23.742188 81.984375 -19.835938 82.265625 -16.015625 C 82.554688 -12.191406 83.015625 -8.820312 83.640625 -5.90625 C 84.273438 -3 85.101562 -1.03125 86.125 0 L 48.96875 0 C 50.113281 -1.03125 51 -3 51.625 -5.90625 C 52.25 -8.820312 52.675781 -12.191406 52.90625 -16.015625 C 53.132812 -19.835938 53.304688 -23.742188 53.421875 -27.734375 C 53.535156 -31.734375 53.5625 -35.390625 53.5 -38.703125 C 53.445312 -42.015625 53.421875 -44.582031 53.421875 -46.40625 C 53.421875 -54.394531 53.445312 -62.328125 53.5 -70.203125 C 53.5625 -78.078125 53.535156 -85.898438 53.421875 -93.671875 C 53.304688 -97.660156 52.445312 -100.625 50.84375 -102.5625 C 49.25 -104.507812 47.425781 -105.484375 45.375 -105.484375 C 43.207031 -105.484375 41.179688 -104.597656 39.296875 -102.828125 C 37.410156 -101.054688 36.410156 -98.171875 36.296875 -94.171875 C 36.296875 -86.179688 36.265625 -78.21875 36.203125 -70.28125 C 36.148438 -62.351562 36.125 -54.394531 36.125 -46.40625 C 36.125 -44.582031 36.09375 -42.015625 36.03125 -38.703125 C 35.976562 -35.390625 36.007812 -31.734375 36.125 -27.734375 C 36.238281 -23.742188 36.410156 -19.835938 36.640625 -16.015625 C 36.867188 -12.191406 37.296875 -8.820312 37.921875 -5.90625 C 38.554688 -3 39.441406 -1.03125 40.578125 0 Z M 3.421875 0 "/></g></g></g><g clip-path="url(#888da223d3)"><path fill="#fb6218" d="M 286.617188 64.292969 C 306.429688 65.363281 320.8125 73.101562 336.703125 83.09375 C 337.335938 83.492188 338.152344 83.363281 338.636719 82.824219 L 350.898438 90.574219 C 349.582031 94.660156 351.136719 99.304688 354.925781 101.699219 L 375.925781 114.972656 C 376.707031 115.464844 377.746094 115.230469 378.242188 114.449219 C 378.734375 113.667969 378.5 112.625 377.71875 112.132812 C 372.050781 108.554688 366.386719 104.972656 360.71875 101.390625 C 360.207031 101.066406 360.050781 100.382812 360.375 99.871094 C 360.699219 99.355469 361.386719 99.199219 361.898438 99.523438 L 378.898438 110.265625 C 379.679688 110.761719 380.722656 110.523438 381.214844 109.746094 C 381.707031 108.964844 381.472656 107.921875 380.691406 107.429688 L 363.691406 96.6875 C 363.179688 96.363281 363.023438 95.679688 363.347656 95.164062 C 363.675781 94.652344 364.355469 94.496094 364.871094 94.824219 L 381.871094 105.5625 C 382.652344 106.054688 383.691406 105.820312 384.183594 105.042969 C 384.679688 104.261719 384.445312 103.21875 383.664062 102.722656 L 366.664062 91.984375 C 366.152344 91.660156 365.996094 90.972656 366.320312 90.460938 C 366.644531 89.949219 367.332031 89.792969 367.84375 90.117188 L 384.84375 100.859375 C 385.625 101.351562 386.664062 101.117188 387.160156 100.335938 C 387.652344 99.554688 387.414062 98.511719 386.636719 98.023438 L 365.636719 84.75 C 361.847656 82.355469 356.984375 82.945312 353.855469 85.890625 L 341.59375 78.140625 C 341.871094 77.472656 341.648438 76.667969 341.007812 76.28125 C 323.050781 65.417969 354.273438 65.839844 427.742188 103.492188 C 416.503906 137.976562 389.003906 168.828125 362.871094 137.441406 C 362.394531 136.871094 361.5 136.90625 360.921875 137.34375 L 350.34375 127.398438 C 352.460938 123.640625 351.875 118.882812 345.859375 113.230469 C 338.585938 106.394531 326.121094 100.839844 322.332031 104.875 C 318.539062 108.910156 324.855469 121.003906 332.132812 127.84375 C 338.144531 133.492188 342.929688 133.78125 346.550781 131.433594 L 357.132812 141.375 C 356.730469 141.980469 356.835938 142.78125 357.355469 143.316406 C 365.652344 151.925781 373.785156 160.164062 367.628906 162.222656 C 365.457031 162.945312 363.015625 159.425781 337.867188 151.488281 C 321.257812 147.089844 311.265625 145.082031 309.496094 143.746094 C 307.726562 142.40625 308.828125 138.390625 310.929688 137.578125 C 312.148438 137.105469 314.8125 136.730469 316.839844 136.5 C 278.878906 122.15625 280.757812 89.238281 286.617188 64.292969 Z M 286.617188 64.292969 " fill-opacity="1" fill-rule="evenodd"/></g><path fill="#fb6218" d="M 359.75 68.027344 C 359.121094 67.246094 357.941406 65.390625 357.09375 62.597656 C 356.242188 59.804688 355.71875 56.070312 356.4375 52.757812 C 357.15625 49.441406 359.113281 46.546875 361.992188 43.351562 C 364.863281 40.164062 368.652344 36.679688 371.230469 33.898438 C 373.804688 31.117188 375.160156 29.035156 375.539062 27.421875 C 375.917969 25.8125 375.3125 24.667969 373.835938 24.4375 C 372.359375 24.207031 370.003906 24.886719 366.113281 26.074219 C 362.222656 27.261719 356.789062 28.953125 352.730469 29.015625 C 348.671875 29.074219 345.988281 27.507812 344.5625 24.984375 C 343.140625 22.460938 342.976562 18.988281 343.53125 15.804688 C 344.085938 12.625 345.363281 9.742188 347.523438 7.03125 C 349.679688 4.324219 352.722656 1.792969 354.144531 0.90625 C 355.566406 0.0195312 355.367188 0.78125 354.996094 2.765625 C 354.625 4.75 354.089844 7.960938 354.265625 10.4375 C 354.441406 12.917969 355.332031 14.664062 357.0625 15.441406 C 358.796875 16.214844 361.367188 16.015625 365.21875 14.675781 C 369.066406 13.335938 374.199219 10.855469 378.707031 9.117188 C 383.21875 7.375 387.105469 6.375 390.175781 6.65625 C 393.246094 6.941406 395.492188 8.507812 396.914062 11.203125 C 398.335938 13.894531 398.925781 17.71875 398.628906 21.738281 C 398.328125 25.753906 397.136719 29.972656 395.019531 33.300781 C 392.902344 36.628906 389.851562 39.070312 385.621094 41.507812 C 381.390625 43.945312 375.976562 46.382812 372.332031 48.707031 C 368.683594 51.027344 366.804688 53.238281 365.132812 56.472656 C 363.457031 59.710938 361.992188 63.976562 361.222656 66.253906 C 360.453125 68.527344 360.375 68.8125 359.75 68.03125 Z M 359.75 68.027344 " fill-opacity="1" fill-rule="evenodd"/><path fill="#fb6218" d="M 366.886719 71.082031 C 367.027344 70.558594 367.804688 69.605469 369.550781 68.464844 C 371.296875 67.324219 374.015625 65.996094 376.300781 64.292969 C 378.585938 62.585938 380.441406 60.503906 382.332031 58.933594 C 384.222656 57.367188 386.148438 56.304688 387.761719 56.464844 C 389.375 56.625 390.679688 58.003906 391.007812 59.710938 C 391.335938 61.417969 390.6875 63.449219 389.03125 65.222656 C 387.371094 66.996094 384.699219 68.511719 381.730469 69.542969 C 378.765625 70.578125 375.5 71.128906 373.121094 71.425781 C 370.742188 71.71875 369.25 71.753906 368.253906 71.726562 C 367.253906 71.695312 366.75 71.605469 366.886719 71.082031 Z M 366.886719 71.082031 " fill-opacity="1" fill-rule="evenodd"/><path fill="#fb6218" d="M 349.6875 65.769531 C 349.867188 65.175781 349.679688 63.777344 348.65625 61.609375 C 347.636719 59.445312 345.78125 56.515625 344.574219 53.472656 C 343.367188 50.429688 342.804688 47.28125 341.902344 44.605469 C 341 41.9375 339.757812 39.742188 338.085938 38.929688 C 336.410156 38.113281 334.308594 38.679688 332.960938 40.148438 C 331.613281 41.617188 331.019531 43.992188 331.574219 46.722656 C 332.128906 49.453125 333.828125 52.542969 336.109375 55.335938 C 338.386719 58.132812 341.242188 60.636719 343.386719 62.355469 C 345.535156 64.074219 346.972656 65.003906 347.964844 65.578125 C 348.957031 66.148438 349.503906 66.363281 349.683594 65.769531 Z M 349.6875 65.769531 " fill-opacity="1" fill-rule="evenodd"/><path stroke-linecap="round" transform="matrix(0.75, 0, 0, 0.75, 449.999981, 134.098088)" fill="none" stroke-linejoin="miter" d="M 10.500026 10.499425 L 277.994835 10.499425 " stroke="#fb6218" stroke-width="21" stroke-opacity="1" stroke-miterlimit="4"/><path stroke-linecap="round" transform="matrix(0.75, 0, 0, 0.75, 171.948765, 329.680702)" fill="none" stroke-linejoin="miter" d="M 10.500606 10.498649 L 274.646456 10.498649 " stroke="#fb6218" stroke-width="21" stroke-opacity="1" stroke-miterlimit="4"/><g fill="#000000" fill-opacity="1"><g transform="translate(409.805576, 355.798094)"><g><path d="M 38.515625 0.703125 C 36.660156 0.703125 35.164062 0.40625 34.03125 -0.1875 C 32.90625 -0.789062 32.023438 -1.582031 31.390625 -2.5625 C 30.753906 -3.539062 30.226562 -4.617188 29.8125 -5.796875 C 29.40625 -6.984375 28.984375 -8.15625 28.546875 -9.3125 C 28.117188 -10.476562 27.546875 -11.550781 26.828125 -12.53125 C 26.117188 -13.507812 25.140625 -14.296875 23.890625 -14.890625 C 22.648438 -15.492188 21 -15.796875 18.9375 -15.796875 C 18.332031 -15.796875 17.613281 -15.757812 16.78125 -15.6875 C 15.957031 -15.625 15.179688 -15.535156 14.453125 -15.421875 C 13.722656 -15.304688 13.15625 -15.179688 12.75 -15.046875 L 12.75 -8.578125 C 12.75 -6.878906 12.820312 -5.265625 12.96875 -3.734375 C 13.125 -2.203125 13.335938 -0.957031 13.609375 0 L 4.03125 0 C 4.664062 -2.0625 4.984375 -4.851562 4.984375 -8.375 L 4.984375 -26.515625 C 4.984375 -30.035156 4.664062 -32.820312 4.03125 -34.875 L 13.609375 -34.875 C 13.367188 -33.945312 13.164062 -32.816406 13 -31.484375 C 12.832031 -30.160156 12.75 -28.664062 12.75 -27 L 12.75 -21.46875 L 20.125 -21.46875 C 23.613281 -21.46875 26.320312 -22.140625 28.25 -23.484375 C 30.175781 -24.835938 31.140625 -26.8125 31.140625 -29.40625 C 31.140625 -31.488281 30.578125 -33.3125 29.453125 -34.875 L 38.125 -34.875 C 38.582031 -34.050781 38.925781 -33.238281 39.15625 -32.4375 C 39.394531 -31.644531 39.515625 -30.613281 39.515625 -29.34375 C 39.515625 -25.65625 38.242188 -22.988281 35.703125 -21.34375 C 33.160156 -19.707031 29.378906 -18.890625 24.359375 -18.890625 L 22.375 -18.890625 L 22.375 -18.390625 L 23.125 -18.390625 C 25.144531 -18.390625 26.816406 -18.140625 28.140625 -17.640625 C 29.472656 -17.140625 30.554688 -16.488281 31.390625 -15.6875 C 32.222656 -14.894531 32.921875 -14.050781 33.484375 -13.15625 C 34.046875 -12.257812 34.578125 -11.410156 35.078125 -10.609375 C 35.578125 -9.816406 36.140625 -9.171875 36.765625 -8.671875 C 37.398438 -8.171875 38.21875 -7.921875 39.21875 -7.921875 C 40.675781 -7.921875 41.726562 -8.203125 42.375 -8.765625 C 43.019531 -9.328125 43.609375 -10.125 44.140625 -11.15625 L 44.453125 -2.140625 C 43.921875 -1.347656 43.128906 -0.675781 42.078125 -0.125 C 41.035156 0.425781 39.847656 0.703125 38.515625 0.703125 Z M 38.515625 0.703125 "/></g></g></g><g fill="#000000" fill-opacity="1"><g transform="translate(454.780327, 355.798094)"><g><path d="M 4.03125 0 C 4.332031 -0.957031 4.554688 -2.164062 4.703125 -3.625 C 4.859375 -5.09375 4.9375 -6.675781 4.9375 -8.375 L 4.9375 -26.515625 C 4.9375 -28.203125 4.851562 -29.773438 4.6875 -31.234375 C 4.519531 -32.703125 4.300781 -33.914062 4.03125 -34.875 L 13.609375 -34.875 C 13.335938 -33.914062 13.117188 -32.703125 12.953125 -31.234375 C 12.785156 -29.773438 12.703125 -28.203125 12.703125 -26.515625 L 12.703125 -8.375 C 12.703125 -6.675781 12.785156 -5.09375 12.953125 -3.625 C 13.117188 -2.164062 13.335938 -0.957031 13.609375 0 Z M 4.03125 0 "/></g></g></g><g fill="#000000" fill-opacity="1"><g transform="translate(472.112668, 355.798094)"><g><path d="M 15.59375 0 C 15.863281 -1 16.082031 -2.21875 16.25 -3.65625 C 16.414062 -5.101562 16.5 -6.675781 16.5 -8.375 L 16.5 -28.109375 L 7.828125 -28.109375 C 6.191406 -28.109375 4.867188 -28.039062 3.859375 -27.90625 C 2.847656 -27.769531 1.910156 -27.550781 1.046875 -27.25 L 2.59375 -34.875 L 38.125 -34.875 L 39.65625 -27.25 C 38.832031 -27.519531 37.90625 -27.726562 36.875 -27.875 C 35.84375 -28.03125 34.515625 -28.109375 32.890625 -28.109375 L 24.265625 -28.109375 L 24.265625 -8.375 C 24.265625 -6.675781 24.335938 -5.101562 24.484375 -3.65625 C 24.640625 -2.21875 24.863281 -1 25.15625 0 Z M 15.59375 0 "/></g></g></g><g fill="#000000" fill-opacity="1"><g transform="translate(512.405643, 355.798094)"><g><path d="M 25.21875 0.703125 C 22.0625 0.703125 19.09375 0.3125 16.3125 -0.46875 C 13.539062 -1.25 11.097656 -2.410156 8.984375 -3.953125 C 6.878906 -5.503906 5.226562 -7.398438 4.03125 -9.640625 C 2.84375 -11.878906 2.25 -14.460938 2.25 -17.390625 C 2.25 -20.316406 2.835938 -22.90625 4.015625 -25.15625 C 5.191406 -27.414062 6.816406 -29.316406 8.890625 -30.859375 C 10.972656 -32.410156 13.390625 -33.582031 16.140625 -34.375 C 18.898438 -35.175781 21.875 -35.578125 25.0625 -35.578125 C 27.914062 -35.578125 30.613281 -35.296875 33.15625 -34.734375 C 35.695312 -34.171875 37.832031 -33.4375 39.5625 -32.53125 L 38.921875 -25.0625 C 37.523438 -26.125 35.6875 -27.007812 33.40625 -27.71875 C 31.132812 -28.4375 28.671875 -28.796875 26.015625 -28.796875 C 23.023438 -28.796875 20.320312 -28.335938 17.90625 -27.421875 C 15.5 -26.515625 13.585938 -25.210938 12.171875 -23.515625 C 10.765625 -21.828125 10.0625 -19.785156 10.0625 -17.390625 C 10.0625 -14.960938 10.789062 -12.910156 12.25 -11.234375 C 13.71875 -9.554688 15.695312 -8.273438 18.1875 -7.390625 C 20.675781 -6.515625 23.484375 -6.078125 26.609375 -6.078125 C 29.398438 -6.078125 32.066406 -6.457031 34.609375 -7.21875 C 37.148438 -7.988281 39.265625 -9.035156 40.953125 -10.359375 L 40.953125 -2.34375 C 38.929688 -1.414062 36.59375 -0.675781 33.9375 -0.125 C 31.28125 0.425781 28.375 0.703125 25.21875 0.703125 Z M 25.21875 0.703125 "/></g></g></g><g fill="#000000" fill-opacity="1"><g transform="translate(554.641054, 355.798094)"><g><path d="M 4.03125 0 C 4.664062 -2.0625 4.984375 -4.851562 4.984375 -8.375 L 4.984375 -26.515625 C 4.984375 -28.203125 4.890625 -29.773438 4.703125 -31.234375 C 4.523438 -32.703125 4.300781 -33.914062 4.03125 -34.875 L 13.609375 -34.875 C 13.335938 -33.84375 13.117188 -32.65625 12.953125 -31.3125 C 12.785156 -29.96875 12.703125 -28.46875 12.703125 -26.8125 L 12.703125 -20.734375 L 34.484375 -20.734375 L 34.484375 -26.8125 C 34.484375 -28.5 34.398438 -30.023438 34.234375 -31.390625 C 34.066406 -32.753906 33.847656 -33.914062 33.578125 -34.875 L 43.15625 -34.875 C 42.882812 -33.914062 42.664062 -32.703125 42.5 -31.234375 C 42.332031 -29.773438 42.25 -28.203125 42.25 -26.515625 L 42.25 -8.375 C 42.25 -6.675781 42.320312 -5.09375 42.46875 -3.625 C 42.625 -2.164062 42.851562 -0.957031 43.15625 0 L 33.578125 0 C 33.847656 -0.957031 34.066406 -2.117188 34.234375 -3.484375 C 34.398438 -4.847656 34.484375 -6.378906 34.484375 -8.078125 L 34.484375 -14.25 L 12.703125 -14.25 L 12.703125 -8.078125 C 12.703125 -6.441406 12.769531 -4.953125 12.90625 -3.609375 C 13.039062 -2.265625 13.273438 -1.0625 13.609375 0 Z M 4.03125 0 "/></g></g></g><g fill="#000000" fill-opacity="1"><g transform="translate(601.458641, 355.798094)"><g><path d="M 4.03125 0 C 4.664062 -2.0625 4.984375 -4.851562 4.984375 -8.375 L 4.984375 -26.515625 C 4.984375 -28.203125 4.890625 -29.773438 4.703125 -31.234375 C 4.523438 -32.703125 4.300781 -33.914062 4.03125 -34.875 L 38.171875 -34.875 L 39.40625 -27.359375 C 38.84375 -27.617188 38.003906 -27.832031 36.890625 -28 C 35.785156 -28.164062 34.367188 -28.25 32.640625 -28.25 L 12.703125 -28.25 L 12.703125 -20.734375 L 28.75 -20.734375 C 31.039062 -20.734375 32.785156 -20.832031 33.984375 -21.03125 L 33.984375 -13.953125 C 32.785156 -14.148438 31.039062 -14.25 28.75 -14.25 L 12.703125 -14.25 L 12.703125 -6.625 L 32.984375 -6.625 C 34.941406 -6.625 36.519531 -6.738281 37.71875 -6.96875 C 38.914062 -7.207031 39.878906 -7.523438 40.609375 -7.921875 L 39.171875 0 Z M 4.03125 0 "/></g></g></g><g fill="#000000" fill-opacity="1"><g transform="translate(643.843468, 355.798094)"><g><path d="M 4.03125 0 C 4.300781 -0.957031 4.523438 -2.164062 4.703125 -3.625 C 4.890625 -5.09375 4.984375 -6.675781 4.984375 -8.375 L 4.984375 -26.515625 C 4.984375 -30.035156 4.664062 -32.820312 4.03125 -34.875 L 13.0625 -34.875 L 36.21875 -10.421875 L 36.875 -10.421875 L 36.875 -26.65625 C 36.875 -28.382812 36.78125 -29.988281 36.59375 -31.46875 C 36.414062 -32.945312 36.207031 -34.082031 35.96875 -34.875 L 45.546875 -34.875 C 45.273438 -33.914062 45.054688 -32.703125 44.890625 -31.234375 C 44.722656 -29.773438 44.640625 -28.203125 44.640625 -26.515625 L 44.640625 0 L 37.515625 0 L 13.296875 -25.265625 L 12.703125 -25.265625 L 12.703125 -8.921875 C 12.703125 -7.191406 12.789062 -5.488281 12.96875 -3.8125 C 13.15625 -2.132812 13.367188 -0.863281 13.609375 0 Z M 4.03125 0 "/></g></g></g></svg>